<?xml version="1.0" standalone="no"?>
<!DOCTYPE svg PUBLIC "-//W3C//DTD SVG 20010904//EN"
 "http://www.w3.org/TR/2001/REC-SVG-20010904/DTD/svg10.dtd">
<svg version="1.0" xmlns="http://www.w3.org/2000/svg"
 width="560.000000pt" height="560.000000pt" viewBox="0 0 560.000000 560.000000"
 preserveAspectRatio="xMidYMid meet">
<metadata>
Created by potrace 1.14, written by Peter Selinger 2001-2017
</metadata>
<g transform="translate(0.000000,560.000000) scale(0.100000,-0.100000)"
fill="#000000" stroke="none">
<path d="M2740 5462 c-73 -33 -113 -94 -113 -172 0 -68 33 -125 93 -159 l40
-22 0 -398 c0 -219 3 -439 6 -489 l7 -92 -136 0 -136 0 -3 300 c-3 323 -3 319
-55 320 -49 0 -53 -22 -53 -332 l0 -288 -150 0 -150 0 0 519 0 520 -26 20
c-21 17 -30 19 -48 9 -11 -6 -24 -16 -28 -22 -4 -6 -8 -244 -8 -528 l0 -518
-117 0 c-65 0 -136 -5 -157 -10 -86 -19 -124 -74 -133 -191 l-6 -79 -279 0
-278 0 -11 -24 c-15 -33 2 -62 42 -70 17 -3 143 -6 280 -6 l249 0 0 -135 0
-134 -513 -3 c-418 -2 -517 -6 -530 -17 -24 -19 -22 -68 2 -81 13 -6 197 -10
530 -10 l511 0 0 -171 c0 -152 -2 -170 -16 -165 -9 3 -113 6 -232 6 l-217 1
-26 43 c-35 58 -101 90 -169 84 -182 -18 -231 -242 -76 -343 35 -23 129 -24
172 -2 30 15 88 73 95 96 3 6 86 11 237 13 l232 3 0 -147 0 -148 -275 0 -275
0 -12 -25 c-8 -19 -8 -31 0 -50 l12 -25 275 0 275 0 0 -140 0 -140 -489 0
-489 0 -12 29 c-24 59 -104 111 -171 111 -18 0 -52 -10 -77 -23 -110 -54 -138
-202 -54 -290 89 -94 253 -66 302 51 l10 22 489 0 489 0 4 -147 c4 -142 5
-150 32 -190 41 -61 80 -76 219 -81 l117 -4 0 -517 c0 -389 3 -520 12 -529 19
-19 66 -15 78 7 6 13 10 197 10 530 l0 511 130 0 130 0 0 -637 0 -638 -37 -20
c-59 -32 -83 -76 -83 -153 0 -77 22 -121 81 -158 50 -31 138 -33 185 -5 127
77 122 260 -7 327 l-29 15 0 634 0 635 105 0 105 0 0 -165 c0 -152 2 -167 20
-185 25 -25 45 -25 70 0 18 18 20 33 20 185 l0 165 130 0 130 0 0 -167 0 -168
-40 -23 c-93 -53 -122 -172 -64 -254 39 -55 72 -78 122 -85 63 -8 109 5 152
43 48 43 64 90 57 160 -7 63 -30 100 -86 134 l-40 25 -1 168 0 167 155 0 155
0 0 -518 c0 -390 3 -521 12 -530 15 -15 61 -15 76 0 9 9 12 140 12 530 l0 518
135 0 c277 0 324 37 325 258 l0 112 114 0 c63 0 126 4 140 10 34 12 44 54 21
80 -16 18 -32 20 -147 20 l-128 0 0 135 0 135 185 0 184 0 15 -27 c29 -56 103
-103 163 -103 41 0 99 28 135 67 142 150 -57 386 -233 275 -24 -16 -53 -45
-64 -65 l-20 -37 -182 0 -183 0 0 120 0 120 133 0 c151 0 177 9 177 61 0 44
-31 52 -182 45 l-128 -5 0 104 0 105 461 0 c298 0 467 4 480 10 25 14 25 61 1
83 -17 15 -65 17 -480 17 l-462 0 0 155 0 155 485 0 485 0 24 -39 c37 -58 80
-84 147 -89 49 -4 65 0 104 22 51 31 95 103 95 158 -1 42 -30 106 -63 137 -50
46 -150 57 -213 23 -25 -13 -84 -78 -84 -92 0 -6 -182 -10 -490 -10 l-490 0 0
153 c0 139 -2 157 -22 197 -41 80 -90 99 -250 100 l-98 0 0 130 c0 108 3 130
15 130 24 0 87 62 106 105 23 51 23 89 0 141 -71 156 -286 147 -341 -15 -16
-48 -17 -59 -4 -100 17 -59 42 -91 88 -116 l36 -20 -2 -125 -3 -125 -152 -3
-153 -3 0 110 c0 121 -10 145 -59 139 -39 -5 -51 -40 -51 -150 l0 -98 -100 0
-100 0 0 444 c0 244 -3 463 -6 487 -6 44 -6 45 39 73 58 37 87 88 87 156 0
106 -75 181 -181 179 -30 0 -61 -3 -69 -7z m103 -104 c50 -26 62 -78 27 -116
-66 -70 -174 5 -129 89 18 34 65 47 102 27z m754 -740 c51 -48 16 -128 -57
-128 -47 0 -74 28 -74 77 0 66 81 98 131 51z m202 -644 c21 -27 21 -30 21
-1038 0 -858 -2 -1015 -14 -1032 -14 -19 -38 -19 -1034 -22 -993 -2 -1020 -2
-1043 17 l-24 19 -3 1016 -2 1017 24 24 25 25 1015 0 1015 0 20 -26z m1365
-295 c31 -25 35 -75 8 -109 -27 -34 -88 -32 -118 4 -32 36 -30 61 5 97 35 34
68 37 105 8z m-4184 -639 c46 -46 9 -130 -57 -130 -63 0 -96 73 -57 128 20 29
85 31 114 2z m3583 -437 c25 -23 23 -87 -5 -113 -45 -42 -128 -9 -128 51 0 78
76 113 133 62z m-4094 -339 c29 -36 27 -76 -5 -108 -33 -32 -73 -34 -101 -3
-29 31 -36 62 -22 89 29 55 94 66 128 22z m2622 -983 c45 -36 22 -122 -36
-133 -76 -15 -124 74 -70 127 29 30 73 33 106 6z m-681 -936 c70 -74 -34 -182
-105 -110 -31 30 -32 73 -4 109 27 35 77 36 109 1z"/>
<path d="M1852 3248 c-7 -7 -12 -33 -12 -60 0 -56 21 -75 98 -89 75 -14 82
-29 82 -176 0 -91 4 -132 15 -153 19 -37 59 -49 94 -29 31 18 39 58 40 209 1
58 5 110 9 116 12 18 49 34 79 34 15 0 43 9 61 20 29 18 32 24 32 68 0 26 -5
53 -12 60 -17 17 -469 17 -486 0z"/>
<path d="M2530 3242 c-67 -33 -75 -62 -75 -278 0 -175 2 -194 19 -213 27 -30
76 -28 107 5 22 23 24 36 29 144 3 65 8 122 13 126 4 4 7 -37 7 -92 0 -151 23
-204 90 -204 64 1 90 61 90 210 0 65 3 90 10 80 5 -8 10 -61 10 -118 0 -130
19 -171 81 -172 60 0 78 47 79 213 0 116 -16 233 -37 265 -27 43 -70 52 -235
52 -126 0 -159 -3 -188 -18z"/>
<path d="M3175 3252 c-60 -20 -82 -55 -91 -144 -8 -81 6 -127 51 -167 43 -38
91 -51 183 -51 40 0 72 -4 72 -10 0 -5 -60 -11 -147 -12 l-148 -3 0 -54 c0
-47 3 -56 28 -75 26 -19 41 -21 205 -21 152 0 182 3 210 18 82 45 98 223 26
298 -28 29 -29 29 -145 29 -68 0 -120 4 -124 10 -8 13 -18 11 122 19 151 8
176 21 181 95 5 76 6 76 -212 75 -105 -1 -200 -4 -211 -7z"/>
</g>
</svg>
